<?xml version="1.0" encoding="UTF-8"?>
<svg xmlns="http://www.w3.org/2000/svg" width="1400" height="900" viewBox="0 0 1400 900">
  <defs>
    <linearGradient id="bg" x1="0" x2="1" y1="0" y2="1">
      <stop offset="0" stop-color="#da1818"/>
      <stop offset=".58" stop-color="#7d1018"/>
      <stop offset="1" stop-color="#050812"/>
    </linearGradient>
    <radialGradient id="glow" cx="50%" cy="30%" r="48%">
      <stop offset="0" stop-color="#d4af37" stop-opacity=".76"/>
      <stop offset=".55" stop-color="#d4af37" stop-opacity=".18"/>
      <stop offset="1" stop-color="#d4af37" stop-opacity="0"/>
    </radialGradient>
  </defs>
  <rect width="1400" height="900" fill="url(#bg)"/>
  <rect width="1400" height="900" fill="url(#glow)"/>
  <path d="M100 676c188-70 390-100 602-80 210 20 402 18 598-82" fill="none" stroke="#d4af37" stroke-width="10" stroke-opacity=".55"/>
  <g transform="translate(546 138)">
    <path d="M132 420h170l-24 78H156z" fill="#d4af37"/>
    <path d="M124 118h184v260c0 68-42 118-92 118s-92-50-92-118z" fill="#d4af37"/>
    <path d="M94 166c-80 12-112 104-44 154" fill="none" stroke="#d4af37" stroke-width="28" stroke-linecap="round"/>
    <path d="M338 166c80 12 112 104 44 154" fill="none" stroke="#d4af37" stroke-width="28" stroke-linecap="round"/>
    <path d="M158 166h116" stroke="#050812" stroke-width="14" stroke-linecap="round" opacity=".3"/>
  </g>
  <text x="92" y="724" fill="#fff" font-family="Inter, Arial, sans-serif" font-size="70" font-weight="900">Royal Challengers Bengaluru</text>
  <text x="96" y="790" fill="#f6df93" font-family="Inter, Arial, sans-serif" font-size="36" font-weight="800">2026 IPL Champions - back-to-back title</text>
</svg>
