<?xml version="1.0" encoding="UTF-8"?>
<svg xmlns="http://www.w3.org/2000/svg" width="1400" height="900" viewBox="0 0 1400 900">
  <defs>
    <linearGradient id="bg" x1="0" x2="1" y1="0" y2="1">
      <stop offset="0" stop-color="#4c1d95"/>
      <stop offset=".55" stop-color="#1d4ed8"/>
      <stop offset="1" stop-color="#050812"/>
    </linearGradient>
    <radialGradient id="glow" cx="50%" cy="28%" r="48%">
      <stop offset="0" stop-color="#c084fc" stop-opacity=".72"/>
      <stop offset=".55" stop-color="#c084fc" stop-opacity=".16"/>
      <stop offset="1" stop-color="#c084fc" stop-opacity="0"/>
    </radialGradient>
  </defs>
  <rect width="1400" height="900" fill="url(#bg)"/>
  <rect width="1400" height="900" fill="url(#glow)"/>
  <path d="M318 612c116-86 250-128 402-128 146 0 268 38 362 112" fill="none" stroke="#c084fc" stroke-width="12" stroke-opacity=".42"/>
  <g transform="translate(584 138)">
    <circle cx="116" cy="112" r="72" fill="#8b5a3c"/>
    <path d="M38 286c22-64 64-96 126-96s104 32 126 96v138H38z" fill="#1e3a8a"/>
    <path d="M38 286h252v54H38z" fill="#facc15" opacity=".9"/>
    <path d="M70 78c24-38 78-52 126-26 18 10 30 26 36 52-50-20-100-20-162-26z" fill="#141016"/>
    <path d="M58 390l198-166" stroke="#ffffff" stroke-width="20" stroke-linecap="round" opacity=".88"/>
    <path d="M250 214l40-34" stroke="#ef4444" stroke-width="18" stroke-linecap="round"/>
  </g>
  <text x="92" y="724" fill="#fff" font-family="Inter, Arial, sans-serif" font-size="72" font-weight="900">Kagiso Rabada</text>
  <text x="96" y="790" fill="#e9d5ff" font-family="Inter, Arial, sans-serif" font-size="36" font-weight="800">2026 Purple Cap - 29 wickets</text>
</svg>
